<?xml version="1.0" encoding="UTF-8"?>
<svg id="Layer_1" data-name="Layer 1" xmlns="http://www.w3.org/2000/svg" version="1.1" viewBox="0 0 669 669">
  <defs>
    <style>
      .cls-1 {
        fill: #231f20;
        stroke: #231f20;
        stroke-linecap: round;
        stroke-linejoin: round;
        stroke-width: 16.7px;
      }

      .cls-2 {
        fill: #fff;
        stroke-width: 0px;
      }
    </style>
  </defs>
  <path class="cls-1" d="M443.8,321.3c14.7,0,51-139.8,215.7-84.2-79.3,60.5-35,144.3-114.3,253.5-56.4,79.1-146.9,126.9-244,129-39.4.4-78.4-6.7-115.2-20.8,84.3-11.5,158.1-62.6,198.5-137.5-90.8,26.2-187.6-13.9-233.3-96.7,25.3-7.2,51.5-11.1,77.8-11.5,0,0-135.7-54.5-150-97.5,20.2-15.8,82.3-7,82.3-7,0,0-143.5-79.2-151.8-133.2,254.2,0,420.5,205.8,434.3,205.8Z"/>
  <path class="cls-1" d="M517.5,347.5l-121,44-56.7-157s-86.2-109.7-88.7-185.2c65.2,1.8,188.2,101.8,204.5,258.7l61.8,39.5Z"/>
  <circle class="cls-2" cx="567.3" cy="265.7" r="12.5"/>
</svg>